<svg xmlns="http://www.w3.org/2000/svg" width="179" height="182" fill="none" viewBox="0 0 179 182">
  <g class="shield-svgrepo-com 1" clip-path="url(#a)">
    <g class="Group">
      <g class="Group_2">
        <g class="Group_3">
          <path fill="#627D98" d="M158.116 14.917c-.767 0-1.465.29-1.99.773-4.824 1.614-27.903 8.578-66.626 8.578-36.54 0-59.147-6.2-65.633-8.256V7.986C32.11 11.665 52.03 18.202 89.5 18.202c51.032 0 69.508-12.127 70.272-12.643 1.366-.926 1.733-2.797.829-4.19a2.966 2.966 0 0 0-4.129-.867c-.173.118-18.097 11.632-66.972 11.632C40.624 12.134 22.7.621 22.54.512A2.936 2.936 0 0 0 19.476.36 3.043 3.043 0 0 0 17.9 3.035v15.167c0 1.264.772 2.396 1.936 2.842.972.37 23.863 8.863 66.68 9.254v21.27c0 1.674 1.336 3.033 2.983 3.033s2.983-1.359 2.983-3.033v-21.26c33.094-.3 54.29-5.442 62.649-7.941V91h-20.883c-1.646 0-2.983 1.36-2.983 3.033 0 1.675 1.337 3.034 2.983 3.034h20.883V109.2c0 35.778-27.84 65.064-62.649 66.657v-27.224c0-1.675-1.337-3.034-2.983-3.034-1.647 0-2.983 1.359-2.983 3.034v27.224c-34.81-1.593-62.65-30.879-62.65-66.657V97.068H44.75c1.647 0 2.983-1.36 2.983-3.034 0-1.674-1.336-3.033-2.983-3.033H23.867V30.335c0-1.674-1.336-3.033-2.983-3.033s-2.983 1.359-2.983 3.033v78.866C17.9 149.341 50.022 182 89.5 182c39.477 0 71.598-32.659 71.598-72.799V17.95c0-1.677-1.336-3.033-2.983-3.033Z" class="Vector"/>
          <path fill="#627D98" d="M101.523 81.901c0-1.674-1.334-3.033-2.983-3.033h-.03c-1.647 0-2.969 1.359-2.969 3.033s1.349 3.033 2.999 3.033c1.649 0 2.983-1.358 2.983-3.033Z" class="Vector_2"/>
          <path fill="#627D98" d="M53.79 93.297a3.064 3.064 0 0 0 .543 2.603 2.96 2.96 0 0 0 2.35 1.168c.481 0 1.075.224 1.668.549-4.713 6.876-4.17 16.31 1.63 28.106a2.986 2.986 0 0 0 2.466 1.672 2.969 2.969 0 0 0 2.664-1.314c2.056-3.048 4.07-5.369 5.794-7.076.815 4.896 4.105 11.693 13.703 19.826a2.937 2.937 0 0 0 1.909.703c.549 0 1.097-.151 1.587-.464a3.059 3.059 0 0 0 1.307-3.306c-2.292-9.312 1.36-11.672 1.423-11.715 1.473-.749 2.073-2.572 1.336-4.071-.737-1.498-2.527-2.111-4.004-1.355-.253.127-4.83 2.563-5.402 10.101-8.497-9.513-5.695-14.806-5.699-14.806a3.073 3.073 0 0 0-.256-3.703 2.946 2.946 0 0 0-3.592-.677c-.22.115-4.663 2.49-9.91 8.912-3.312-8.569-2.826-14.869 1.443-19.17a3.072 3.072 0 0 0 .027-4.284c-.26-.27-1.918-1.932-4.203-3.027 3.302-6.858 10.847-7.03 11.193-7.034 1.208 0 2.3-.743 2.76-1.884a3.067 3.067 0 0 0-.668-3.31c-1.585-1.588-3.097-4.085-2.966-4.795 1.023-1.04 3.953-.157 5.284.54.856.459 1.88.465 2.747.018a3.034 3.034 0 0 0 1.596-2.271c.406-2.864 1.904-6.498 3.014-6.498 2.162 0 3.046 3.656 3.051 3.67.296 1.399 1.51 2.397 2.915 2.397h5.967c2.16 0 6.65 1.95 15.791 11.244 1.578 1.605 3.493 2.093 5.032 2.485 2.339.594 3.043.773 3.043 4.47 0 3.034-.859 3.034-3.144 3.034-.262-.003-.68-.064-1.208-.125-3.443-.406-9.854-1.167-13.729 2.336-1.277 1.159-2.802 3.291-2.802 6.889 0 5.684 4.869 8.065 8.95 8.817v5.254c-4.039-1.507-10.638-4.605-15.73-10.089a2.947 2.947 0 0 0-4.216-.121 3.07 3.07 0 0 0-.122 4.289c9.069 9.764 21.834 12.877 22.374 13.004a2.957 2.957 0 0 0 2.533-.58 3.047 3.047 0 0 0 1.128-2.375v-12.133c0-1.668-1.333-3.021-2.974-3.033-.06 0-5.976-.17-5.976-3.033 0-1.462.457-2.045.803-2.354 1.873-1.699 6.918-1.104 9.069-.847.841.101 1.5.167 1.894.167 6.05 0 9.117-3.06 9.117-9.1 0-8.435-4.734-9.64-7.562-10.358-.994-.252-1.85-.47-2.262-.886-5.961-6.064-13.625-13.022-20.009-13.022h-3.819c-1.243-2.894-3.791-6.067-8.114-6.067-4.702 0-7.023 4.656-8.097 8.123-2.86-.692-6.313-.625-8.761 1.865-1.137 1.156-1.734 2.649-1.73 4.314.008 1.677.647 3.345 1.458 4.795-4.926 1.569-10.624 5.44-12.614 13.532Z" class="Vector_3"/>
        </g>
      </g>
    </g>
  </g>
  <defs>
    <clipPath id="a" class="a">
      <path fill="#fff" d="M0 0h179v182H0z"/>
    </clipPath>
  </defs>
</svg>
